<?xml version="1.0" encoding="utf-8"?>
<!-- Generator: Adobe Illustrator 15.0.0, SVG Export Plug-In . SVG Version: 6.00 Build 0)  -->
<!DOCTYPE svg PUBLIC "-//W3C//DTD SVG 1.1 Basic//EN" "http://www.w3.org/Graphics/SVG/1.1/DTD/svg11-basic.dtd">
<svg version="1.1" baseProfile="basic" id="Layer_1"
	 xmlns="http://www.w3.org/2000/svg" xmlns:xlink="http://www.w3.org/1999/xlink" x="0px" y="0px" width="90.333px" height="73px"
	 viewBox="0 -8 90.333 73" xml:space="preserve">
<g id="_x32_um9sB_1_">
	<g>
		<path fill-rule="evenodd" clip-rule="evenodd" fill="#DF1E26" d="M11.752-1.568c0.557,0,1.113,0,1.67,0c0.278,0,0.558,0,0.835,0
			c0.558,0,1.114,0,1.672,0c0.557,0,1.113,0,1.671,0c0.277,0,0.557,0,0.835,0c0.558,0,1.113,0,1.67,0c0.279,0,0.558,0,0.836,0
			c0.558,0,1.113,0,1.671,0c1.113,0,2.228,0,3.341,0c0.558,0,1.114,0,1.671,0c0.278,0,0.558,0,0.836,0c1.113,0,2.228,0,3.341,0
			c0.558,0,1.114,0,1.671,0c0.278,0,0.558,0,0.836,0c1.113,0,2.229,0,3.341,0c0.558,0,1.113,0,1.672,0c0.277,0,0.557,0,0.834,0
			c1.114,0,2.229,0,3.343,0c0.558,0,1.114,0,1.671,0c0.278,0,0.558,0,0.835,0c1.113,0,2.229,0,3.342,0c0.557,0,1.113,0,1.67,0
			c0.279,0,0.559,0,0.836,0c1.114,0,2.229,0,3.342,0c0.557,0,1.113,0,1.671,0c0.278,0,0.558,0,0.835,0c1.113,0,2.229,0,3.342,0
			c0.557,0,1.113,0,1.67,0c0.279,0,0.558,0,0.836,0c1.113,0,2.229,0,3.342,0c0.557,0,1.113,0,1.671,0c0.278,0,0.558,0,0.835,0
			c0.558,0,1.113,0,1.671,0c0.278,0,0.558,0,0.835,0c0.558,0,1.113,0,1.671,0s1.114,0,1.671,0s1.113,0,1.67,0
			c0.279,0,0.559,0,0.836,0c0.279,0,0.557,0,0.836,0c0.099,0,0.781-0.066,0.836,0c0.064,0.08-0.085,0.806,0,0.836
			c0.207,0.07,0.611,0,0.835,0c0.128,0,0.745-0.079,0.835,0c0.138,0.119-0.109,0.683,0,0.834c0.167,0.112,0.695-0.139,0.836,0
			c0.078,0.08-0.007,0.714,0,0.837c0.01,0.204-0.087,0.652,0,0.834c0.053,0.112,0.74-0.093,0.835,0c0.079,0.08-0.007,0.714,0,0.836
			c0.015,0.276-0.012,0.558,0,0.836c0,0.556,0,1.113,0,1.671c0,0.277,0,0.556,0,0.835c0,0.557,0,1.114,0,1.671
			c0,0.556,0,1.113,0,1.67c0,0.278,0,0.557,0,0.836c0,1.114,0,2.227,0,3.341c0,0.557,0,1.113,0,1.671c0,0.279,0,0.557,0,0.836
			c0,0.556,0,1.113,0,1.671c0,0.556,0,1.113,0,1.67c0,0.278,0,0.557,0,0.837c0,0.555,0,1.112,0,1.67c0,0.557,0,1.113,0,1.67
			c0,0.279,0,0.558,0,0.836c0,0.557,0,1.113,0,1.67c0,1.114,0,2.229,0,3.342c0,0.557,0,1.113,0,1.672c0,0.277,0,0.557,0,0.834
			c0,0.557,0,1.115,0,1.671c0,1.113,0,2.227,0,3.342c0,0.555,0,1.113,0,1.67c0,0.277,0,0.557,0,0.836c0,0.557,0,1.113,0,1.67
			c0,1.113,0,2.229,0,3.342c0,0.557,0,1.113,0,1.672c0,0.277,0,0.555,0,0.834c0,0.557,0,1.113,0,1.672c0,1.113,0,2.227,0,3.34
			c0,0.557,0,1.113,0,1.672c0,0.232,0.067,0.613,0,0.834c-0.046,0.156,0.108,0.729,0,0.836c-0.14,0.139-0.669-0.111-0.835,0
			c0,0.279,0,0.557,0,0.836c0,0.1,0.064,0.781,0,0.836c-0.167,0.135-0.646-0.109-0.836,0c-0.109,0.188,0.136,0.668,0,0.834
			c-0.054,0.066-0.737,0-0.835,0c-0.278,0-0.558,0-0.835,0c-0.111,0.168,0.139,0.695,0,0.836c-0.08,0.078-0.713-0.006-0.836,0
			c-0.277,0.016-0.557-0.012-0.836,0c-1.113,0-2.227,0-3.342,0c-0.557,0-1.113,0-1.67,0c-0.558,0-1.113,0-1.671,0s-1.113,0-1.671,0
			c-0.277,0-0.557,0-0.835,0c-1.114,0-2.228,0-3.341,0c-0.559,0-1.115,0-1.672,0c-0.278,0-0.557,0-0.836,0c-1.113,0-2.227,0-3.341,0
			c-0.558,0-1.113,0-1.671,0c-0.277,0-0.557,0-0.835,0c-1.114,0-2.228,0-3.341,0c-0.558,0-1.115,0-1.672,0c-0.277,0-0.557,0-0.836,0
			c-1.113,0-2.227,0-3.341,0c-0.558,0-1.113,0-1.671,0c-0.277,0-0.557,0-0.835,0c-1.113,0-2.228,0-3.341,0c-0.559,0-1.115,0-1.673,0
			c-0.277,0-0.557,0-0.834,0c-1.114,0-2.229,0-3.343,0c-0.557,0-1.113,0-1.67,0c-0.278,0-0.558,0-0.836,0c-1.113,0-2.228,0-3.341,0
			c-0.558,0-1.114,0-1.671,0c-0.278,0-0.558,0-0.836,0c-1.113,0-2.228,0-3.341,0c-0.558,0-1.114,0-1.671,0c-0.278,0-0.558,0-0.836,0
			c-0.557,0-1.113,0-1.671,0c-0.277,0-0.557,0-0.835,0c-0.558,0-1.113,0-1.67,0c-0.558,0-1.114,0-1.671,0c-1.114,0-2.229,0-3.342,0
			c-0.278,0-0.558,0-0.835,0c-0.1,0-0.782,0.066-0.836,0c-0.065-0.082,0.084-0.807,0-0.836c-0.209-0.072-0.612,0-0.835,0
			c-0.128,0-0.745,0.078-0.836,0c-0.138-0.119,0.11-0.684,0-0.834c-0.167-0.113-0.695,0.139-0.835,0
			c-0.14-0.141,0.111-0.668,0-0.836c-0.112-0.168,0.14-0.697,0-0.836c-0.072-0.072-0.811,0.084-0.836,0
			c-0.067-0.221,0-0.602,0-0.836c0-0.277,0-0.557,0-0.834c0-0.559,0-1.115,0-1.672s0-1.113,0-1.67s0-1.115,0-1.67
			c0-0.281,0-0.559,0-0.836c0-1.115,0-2.229,0-3.342c0-0.557,0-1.113,0-1.67c0-0.279,0-0.557,0-0.836c0-1.115,0-2.227,0-3.342
			c0-0.279,0-0.557,0-0.836c0-1.113,0-2.227,0-3.34c0-0.279,0-0.559,0-0.836c0-1.115,0-2.228,0-3.341c0-0.279,0-0.557,0-0.834
			c0-1.115,0-2.229,0-3.343c0-0.279,0-0.557,0-0.834c0-1.114,0-2.229,0-3.342c0-0.279,0-0.559,0-0.836c0-1.114,0-2.229,0-3.342
			c0-0.278,0-0.557,0-0.836c0-0.557,0-1.113,0-1.671c0-1.114,0-2.228,0-3.34c0-0.558,0-1.115,0-1.672c0-1.114,0-2.228,0-3.341
			c0-0.559,0-1.115,0-1.671c0-0.558,0-1.114,0-1.671c0-0.233-0.066-0.614,0-0.835c0.047-0.154-0.108-0.729,0-0.836
			c0.14-0.139,0.669,0.111,0.836,0c0-0.279,0-0.557,0-0.835c0-0.1-0.066-0.782,0-0.836c0.166-0.138,0.646,0.11,0.835,0
			c0.111-0.168-0.139-0.696,0-0.835c0.079-0.079,0.713,0.006,0.836,0c0.277-0.015,0.557,0.011,0.835,0
			c0.111-0.167-0.14-0.697,0-0.836C11.056-1.708,11.584-1.457,11.752-1.568z M12.587,10.127c2.228,0,4.455,0,6.683,0
			c0-2.228,0-4.456,0-6.683c-2.228,0-4.455,0-6.683,0C12.587,5.671,12.587,7.9,12.587,10.127z M24.283,10.127
			c2.228,0,4.455,0,6.683,0c0-2.229,0-4.456,0-6.683c-2.228,0-4.455,0-6.683,0C24.283,5.671,24.283,7.899,24.283,10.127z
			 M35.977,10.127c2.229,0,4.456,0,6.685,0c0-2.229,0-4.456,0-6.683c-2.229,0-4.456,0-6.685,0
			C35.977,5.671,35.977,7.899,35.977,10.127z M47.673,10.127c2.228,0,4.456,0,6.684,0c0-2.229,0-4.456,0-6.683
			c-2.228,0-4.456,0-6.684,0C47.673,5.671,47.673,7.899,47.673,10.127z M59.369,10.127c2.228,0,4.456,0,6.683,0
			c0-2.229,0-4.456,0-6.683c-2.227,0-4.455,0-6.683,0C59.369,5.671,59.369,7.899,59.369,10.127z M71.064,10.127
			c2.228,0,4.456,0,6.683,0c0-2.229,0-4.456,0-6.683c-2.227,0-4.455,0-6.683,0C71.064,5.671,71.064,7.899,71.064,10.127z
			 M49.344,13.468c-1.113,0-2.229,0-3.342,0c-0.277,0-0.557,0-0.835,0c-0.557,0-1.113,0-1.671,0c-0.557,0-1.113,0-1.67,0
			c-0.559,0-1.115,0-1.673,0c-0.557,0-1.112,0-1.67,0c-0.278,0-0.557,0-0.836,0c-1.112,0-2.228,0-3.341,0c-0.278,0-0.558,0-0.836,0
			c-1.113,0-2.228,0-3.341,0c-0.278,0-0.558,0-0.836,0c-0.557,0-1.113,0-1.671,0c-0.277,0-0.557,0-0.835,0c-0.558,0-1.113,0-1.671,0
			c-0.278,0-0.558,0-0.835,0c-0.558,0-1.114,0-1.671,0c-0.278,0-0.558,0-0.836,0c-0.557,0-1.113,0.001-1.671,0.001
			c-0.557,0-1.112,0-1.67,0c-1.114,0-2.229,0-3.342,0c-0.278,0-0.557,0-0.836,0c-0.277,0-0.557,0-0.835,0c-0.277,0-0.557,0-0.835,0
			c0,0.278,0,0.556,0,0.836c0,0.556,0,1.113,0,1.671c0,1.113,0,2.227,0,3.34c0,1.114,0,2.229,0,3.343c0,1.113,0,2.227,0,3.341
			c0,2.228,0,4.454,0,6.683c0,1.113,0,2.226,0,3.341c0,1.113,0,2.227,0,3.342c0,0.279,0,0.557,0,0.836c0,0.555,0,1.113,0,1.67
			s0,1.113,0,1.67c0.558,0,1.113,0,1.67,0c1.114,0,2.229,0,3.343,0c0.277,0,0.557,0,0.835,0c0.558,0,1.113,0,1.67,0
			c0.558,0,1.114,0,1.671,0c0.278,0,0.558,0,0.836,0c0.557,0,1.113,0,1.671,0c1.113,0,2.228,0,3.341,0c0.558,0,1.114,0,1.671,0
			c0.278,0,0.558,0,0.836,0c0.557,0,1.113,0,1.67,0c1.114,0,2.229,0,3.343,0c0.557,0,1.112,0,1.67,0c0.278,0,0.557,0,0.835,0
			c0.558,0,1.113,0,1.672,0c0.277,0,0.557,0,0.834,0c0.558,0,1.114,0,1.673,0c0.557,0,1.113,0,1.67,0c0.278,0,0.558,0,0.836,0
			c0.557,0,1.113,0,1.67,0c1.113,0,2.229,0,3.342,0c0.557,0,1.113,0,1.67,0c0-1.113,0-2.227,0-3.342c0-0.277,0-0.557,0-0.834
			c0-0.559,0-1.115,0-1.672s0-1.113,0-1.67c0-1.115,0-2.229,0-3.341c0-1.113,0-2.229,0-3.342c0-0.557,0-1.113,0-1.67
			c0-0.28,0-0.558,0-0.835c0-0.557,0-1.115,0-1.671c0-0.279,0-0.558,0-0.836c0-0.557,0-1.114,0-1.67c0-0.558,0-1.114,0-1.672
			c0-1.114,0-2.228,0-3.341c0-0.279,0-0.558,0-0.836c0-0.557,0-1.114,0-1.671c0-0.558,0-1.114,0-1.671
			C50.458,13.468,49.901,13.468,49.344,13.468z M76.911,13.468c-0.557,0-1.113,0-1.67,0c-1.113,0-2.229,0-3.342,0
			c-0.557,0-1.113,0-1.67,0c-0.278,0-0.558,0-0.836,0c-0.557,0-1.113,0-1.67,0c-1.113,0-2.229,0-3.342,0c-0.557,0-1.114,0-1.672,0
			c-0.277,0-0.557,0-0.835,0c-0.558,0-1.113,0-1.671,0c-1.113,0-2.228,0-3.341,0c-0.182,0-0.679-0.082-0.835,0
			c-0.115,0.061,0.092,0.731,0,0.836c0,0.557,0,1.114,0,1.671c0,1.113,0,2.227,0,3.341s0,2.229,0,3.343c0,1.113,0,2.227,0,3.34
			c0,2.229,0,4.455,0,6.684c0,1.113,0,2.226,0,3.341c0,1.113,0,2.227,0,3.342c0,0.277,0,0.557,0,0.834c0,0.557,0,1.115,0,1.672
			s0,1.113,0,1.67c0.277,0,0.557,0,0.835,0c0.558,0,1.113,0,1.671,0c1.113,0,2.228,0,3.341,0c0.558,0,1.114,0,1.671,0
			c1.113,0,2.229,0,3.342,0s2.229,0,3.342,0c0.557,0,1.113,0,1.67,0c0.278,0,0.558,0,0.836,0c0.557,0,1.113,0,1.67,0
			c1.115,0,2.229,0,3.342,0c0-1.113,0-2.227,0-3.342c0-0.277,0-0.557,0-0.834c0-0.559,0-1.115,0-1.672s0-1.113,0-1.67
			c0-1.115,0-2.229,0-3.341c0-1.113,0-2.229,0-3.342c0-0.557,0-1.113,0-1.67c0-0.28,0-0.558,0-0.835c0-0.557,0-1.115,0-1.671
			c0-0.279,0-0.558,0-0.836c0-0.557,0-1.114,0-1.67c0-0.558,0-1.114,0-1.672c0-1.114,0-2.228,0-3.341c0-0.279,0-0.558,0-0.836
			c0-0.557,0-1.114,0-1.671c0-0.558,0-1.114,0-1.671C77.469,13.468,77.19,13.468,76.911,13.468z M12.587,53.566
			c2.228,0,4.455,0,6.683,0c0-2.229,0-4.457,0-6.684c-2.228,0-4.455,0-6.683,0C12.587,49.109,12.587,51.338,12.587,53.566z
			 M24.283,53.566c2.228,0,4.455,0,6.683,0c0-2.229,0-4.457,0-6.684c-2.228,0-4.455,0-6.683,0
			C24.283,49.109,24.283,51.338,24.283,53.566z M35.977,53.566c2.229,0,4.456,0,6.685,0c0-2.229,0-4.457,0-6.684
			c-2.229,0-4.456,0-6.685,0C35.977,49.109,35.977,51.338,35.977,53.566z M47.673,53.566c2.228,0,4.456,0,6.684,0
			c0-2.229,0-4.457,0-6.684c-2.228,0-4.456,0-6.684,0C47.673,49.109,47.673,51.338,47.673,53.566z M59.369,53.566
			c2.228,0,4.456,0,6.683,0c0-2.229,0-4.457,0-6.684c-2.227,0-4.455,0-6.683,0C59.369,49.109,59.369,51.338,59.369,53.566z
			 M71.064,53.566c2.228,0,4.456,0,6.683,0c0-2.229,0-4.457,0-6.684c-2.227,0-4.455,0-6.683,0
			C71.064,49.109,71.064,51.338,71.064,53.566z"/>
	</g>
</g>
</svg>
