<?xml version="1.0" encoding="utf-8"?>
<!-- Generator: Adobe Illustrator 16.0.0, SVG Export Plug-In . SVG Version: 6.00 Build 0)  -->
<!DOCTYPE svg PUBLIC "-//W3C//DTD SVG 1.1//EN" "http://www.w3.org/Graphics/SVG/1.1/DTD/svg11.dtd">
<svg version="1.1" id="Layer_1" xmlns="http://www.w3.org/2000/svg" xmlns:xlink="http://www.w3.org/1999/xlink" x="0px" y="0px"
	 width="203.567px" height="91.275px" viewBox="0 0 203.567 91.275" enable-background="new 0 0 203.567 91.275"
	 xml:space="preserve">
<g>
	<g>
		<g>
			<path fill="#FFFFFF" d="M6.433,14.581h5.887c6.504,0,11.962,2.372,11.962,9.686c0,2.894-1.091,5.363-3.511,6.981
				c4.273,1.041,6.789,4.887,6.789,9.16c0,7.123-5.745,9.966-12.818,9.966h-8.31V14.581z M10.42,30.342h1.521
				c4.509,0,8.356-0.524,8.356-6.075c0-5.413-3.419-5.982-8.309-5.982H10.42V30.342z M10.42,46.671h3.989
				c4.462,0,9.164-1.089,9.164-6.55c0-5.553-5.317-6.36-9.685-6.36H10.42V46.671z"/>
			<g>
				<path fill="#FFFFFF" d="M67.103,32.526c0,10.301-8.448,18.47-18.656,18.47c-10.208,0-18.657-8.168-18.657-18.47
					c0-10.256,8.448-18.563,18.657-18.563C58.655,13.963,67.103,22.269,67.103,32.526z M33.778,32.478
					c0,8.072,6.55,14.81,14.669,14.81c8.118,0,14.671-6.738,14.671-14.81c0-8.118-6.456-14.812-14.671-14.812
					C40.235,17.666,33.778,24.36,33.778,32.478z"/>
			</g>
			<path fill="#FFFFFF" d="M105.133,32.385c0.096,4.84-0.427,8.831-3.704,12.625c-3.277,3.799-8.26,5.984-13.246,5.984
				c-10.064,0-18.419-8.356-18.419-18.422c0-10.255,8.354-18.61,18.657-18.61c6.266,0,11.346,2.801,15.144,7.74l-2.895,2.706
				c-2.99-4.227-7.027-6.742-12.296-6.742c-8.167,0-14.623,6.884-14.623,14.953c0,3.801,1.518,7.411,4.178,10.113
				c2.61,2.612,6.411,4.556,10.159,4.556c6.219,0,12.771-4.556,12.771-11.201H90.225v-3.702H105.133z"/>
			<path fill="#FFFFFF" d="M145.339,32.526c0,10.301-8.446,18.47-18.653,18.47c-10.207,0-18.659-8.168-18.659-18.47
				c0-10.256,8.452-18.563,18.659-18.563C136.893,13.963,145.339,22.269,145.339,32.526z M112.015,32.478
				c0,8.072,6.553,14.81,14.671,14.81c8.116,0,14.667-6.738,14.667-14.81c0-8.118-6.456-14.812-14.667-14.812
				C118.472,17.666,112.015,24.36,112.015,32.478z"/>
			<path fill="#FFFFFF" d="M156.843,50.374h-3.988V18.285h-8.642v-3.704h21.365v3.704h-8.735V50.374z"/>
			<path fill="#FFFFFF" d="M170.859,40.216l-4.319,10.158h-4.366l16.522-37.502l16.091,37.502h-4.413l-4.226-10.158H170.859z
				 M178.599,22.177l-6.125,14.336h12.106L178.599,22.177z"/>
			<path fill="#FFFFFF" d="M57.724,28.17c-0.448-0.965-1.594-1.384-2.559-0.936l-4.793,2.226v-3.654
				c0-1.063-0.862-1.923-1.925-1.923c-1.063,0-1.925,0.86-1.925,1.923v6.673c0,1.065,0.863,1.928,1.925,1.928
				c0.292,0,0.567-0.068,0.814-0.184c0.006-0.004,0.009-0.004,0.014-0.005l7.513-3.491C57.752,30.28,58.171,29.134,57.724,28.17z
				 M48.594,33.712c-0.813,0-1.474-0.658-1.474-1.472c0-0.815,0.661-1.477,1.474-1.477c0.815,0,1.475,0.662,1.475,1.477
				C50.068,33.054,49.409,33.712,48.594,33.712z"/>
			<path fill="#FFFFFF" d="M135.961,28.17c-0.45-0.965-1.595-1.384-2.559-0.936l-4.792,2.226v-3.654
				c0-1.063-0.863-1.923-1.925-1.923c-1.064,0-1.926,0.86-1.926,1.923v6.673c0,1.065,0.862,1.928,1.926,1.928
				c0.29,0,0.568-0.068,0.812-0.184c0.005-0.004,0.011-0.004,0.017-0.005l7.508-3.491C135.989,30.28,136.407,29.134,135.961,28.17z
				 M126.833,33.712c-0.814,0-1.475-0.658-1.475-1.472c0-0.815,0.661-1.477,1.475-1.477s1.474,0.662,1.474,1.477
				C128.306,33.054,127.646,33.712,126.833,33.712z"/>
			<path fill="#FFFFFF" d="M190.042,7.221c-0.338-0.726-1.199-1.038-1.923-0.703l-3.596,1.672V5.448
				c0-0.799-0.648-1.448-1.447-1.448s-1.446,0.648-1.446,1.448v5.01c0,0.802,0.647,1.446,1.446,1.446
				c0.218,0,0.424-0.049,0.612-0.138c0.003-0.002,0.006-0.002,0.009-0.003l5.64-2.62C190.062,8.807,190.378,7.947,190.042,7.221z"/>
		</g>
		<path fill-rule="evenodd" clip-rule="evenodd" fill="#FFFFFF" d="M6.404,56.796h188.053c0.396,0,0.721,0.34,0.721,0.752l0,0
			c0,0.412-0.325,0.754-0.721,0.754H6.404c-0.397,0-0.719-0.342-0.719-0.754l0,0C5.685,57.136,6.007,56.796,6.404,56.796z"/>
		<g>
			<path fill="#FFFFFF" d="M54.625,81.976c0.196,3.098,2.511,4.893,5.544,4.893c2.185,0,5.316-0.652,5.316-3.555
				c0-2.838-2.87-3.262-5.74-3.848c-2.902-0.588-5.772-1.338-5.772-4.762c0-3.326,3.229-4.305,6.065-4.305
				c3.555,0,6.196,1.533,6.196,5.348h-1.239c-0.033-3.033-2.152-4.271-4.957-4.271c-2.283,0-4.826,0.848-4.826,3.229
				c0,2.674,2.87,3.098,5.576,3.686c3.327,0.619,5.936,1.402,5.936,4.924c0,3.619-3.62,4.631-6.555,4.631
				c-3.815,0-6.685-2.055-6.783-5.969H54.625z"/>
			<path fill="#FFFFFF" d="M70.017,67.628v-3.359h1.239v3.359H70.017z M70.017,87.552V70.79h1.239v16.762H70.017z"/>
			<path fill="#FFFFFF" d="M75.234,70.79h1.239v3.426h0.065c0.522-2.121,2.739-3.816,5.251-3.816c3.195,0,4.696,1.826,5.054,3.555
				h0.065c0.979-2.283,2.609-3.555,5.316-3.555c3.033,0,5.25,1.76,5.25,5.707v11.445h-1.239V76.073c0-4.271-3.033-4.598-4.011-4.598
				c-3.033,0-5.251,2.152-5.251,6.164v9.912h-1.239V76.073c0-4.207-2.869-4.598-3.945-4.598c-2.381,0-5.316,1.859-5.316,6.164v9.912
				h-1.239V70.79z"/>
			<path fill="#FFFFFF" d="M114.431,87.552h-1.239v-3.586h-0.065c-0.848,2.512-3.391,3.979-6,3.979
				c-5.903,0-5.968-4.729-5.968-6.783V70.79h1.239v10.6c0,1.729,0.195,5.479,4.761,5.479c3.751,0,6.033-2.902,6.033-7.012V70.79
				h1.239V87.552z"/>
			<path fill="#FFFFFF" d="M119.615,64.269v23.283h-1.239V64.269H119.615z"/>
			<path fill="#FFFFFF" d="M129.725,71.866h-3.653v11.709c0,2.707,1.272,2.967,3.62,2.902v1.074
				c-2.543,0.164-4.989-0.193-4.859-3.977V71.866h-3.098V70.79h3.098v-5.217h1.239v5.217h3.653V71.866z"/>
			<path fill="#FFFFFF" d="M144.366,84.454c0,0.979,0,2.023,1.108,2.023c0.229,0,0.522-0.033,0.913-0.1v1.045
				c-0.358,0.064-0.685,0.129-1.011,0.129c-1.957,0-2.25-1.074-2.25-2.445v-0.881h-0.065c-0.782,1.99-3.032,3.719-6.229,3.719
				c-3.164,0-5.609-1.207-5.609-4.729c0-3.914,3.392-4.729,6.164-4.957c5.543-0.391,5.771-0.75,5.771-3.488
				c0-0.752-0.848-3.295-4.663-3.295c-3,0-4.99,1.564-5.153,4.467h-1.239c0.163-3.684,2.447-5.543,6.393-5.543
				c2.936,0,5.87,0.912,5.87,4.371V84.454z M143.127,78.031c-0.979,1.109-3.652,0.979-6.066,1.305
				c-2.935,0.326-4.598,1.369-4.598,3.881c0,2.021,1.468,3.652,4.402,3.652c5.643,0,6.262-4.826,6.262-5.707V78.031z
				 M140.388,63.714h1.663l-4.37,4.566h-1.206L140.388,63.714z"/>
			<path fill="#FFFFFF" d="M148.311,70.79h1.239v3.588h0.065c0.849-2.512,3.392-3.979,6-3.979c5.903,0,5.969,4.729,5.969,6.783
				v10.369h-1.239V76.954c0-1.729-0.196-5.479-4.762-5.479c-3.75,0-6.033,2.902-6.033,7.012v9.064h-1.239V70.79z"/>
			<path fill="#FFFFFF" d="M165.725,79.335c-0.065,3.947,2.021,7.533,6.164,7.533c3.163,0,5.413-1.891,6-4.988h1.239
				c-0.652,3.912-3.262,6.064-7.239,6.064c-4.893,0-7.469-3.848-7.403-8.479c-0.065-4.6,2.348-9.066,7.403-9.066
				c5.25,0,7.598,4.143,7.369,8.936H165.725z M178.019,78.259c-0.065-3.521-2.282-6.783-6.13-6.783
				c-3.718,0-5.903,3.457-6.164,6.783H178.019z"/>
			<path fill="#FFFFFF" d="M194.52,84.454c0,0.979,0,2.023,1.108,2.023c0.229,0,0.521-0.033,0.913-0.1v1.045
				c-0.358,0.064-0.685,0.129-1.011,0.129c-1.957,0-2.25-1.074-2.25-2.445v-0.881h-0.065c-0.783,1.99-3.033,3.719-6.229,3.719
				c-3.164,0-5.609-1.207-5.609-4.729c0-3.914,3.392-4.729,6.163-4.957c5.544-0.391,5.772-0.75,5.772-3.488
				c0-0.752-0.848-3.295-4.663-3.295c-3,0-4.99,1.564-5.153,4.467h-1.239c0.163-3.684,2.446-5.543,6.393-5.543
				c2.935,0,5.87,0.912,5.87,4.371V84.454z M193.28,78.031c-0.979,1.109-3.653,0.979-6.066,1.305
				c-2.935,0.326-4.598,1.369-4.598,3.881c0,2.021,1.468,3.652,4.402,3.652c5.642,0,6.262-4.826,6.262-5.707V78.031z"/>
		</g>
	</g>
</g>
</svg>
