<?xml version="1.0" encoding="utf-8"?>
<!-- Generator: Adobe Illustrator 15.0.0, SVG Export Plug-In . SVG Version: 6.00 Build 0)  -->
<!DOCTYPE svg PUBLIC "-//W3C//DTD SVG 1.1 Basic//EN" "http://www.w3.org/Graphics/SVG/1.1/DTD/svg11-basic.dtd">
<svg version="1.1" baseProfile="basic" id="Layer_1"
	 xmlns="http://www.w3.org/2000/svg" xmlns:xlink="http://www.w3.org/1999/xlink" x="0px" y="0px" width="83.667px" height="65px"
	 viewBox="0 0 83.667 65" xml:space="preserve">
<g>
	<path fill="#DF1E26" d="M50.069,27.179c-5.667,0-10.277,4.61-10.277,10.277s4.61,10.276,10.277,10.276s10.277-4.609,10.277-10.276
		C60.347,31.79,55.736,27.179,50.069,27.179z M50.069,41.409c-2.183,0-3.952-1.771-3.952-3.953s1.77-3.953,3.952-3.953
		c2.185,0,3.953,1.771,3.953,3.953C54.022,39.641,52.253,41.409,50.069,41.409z"/>
	<path fill="#DF1E26" d="M74.686,14.387h-7.104l-8.199-8.583c0,0-1.693-2.061-2.389-2.365c-0.594-0.258-3.312-0.141-3.312-0.141
		h-6.274c0,0-2.402-0.009-2.965,0.219c-0.542,0.22-2.107,1.818-2.107,1.818l-9.521,9.051h-5.681V9.174
		c0-0.743-0.602-1.345-1.343-1.345H12.838c-0.743,0-1.345,0.603-1.345,1.345v5.212H8.297c-2.475,0-4.482,2.006-4.482,4.481v38.098
		c0,2.475,2.007,4.48,4.482,4.48h66.389c2.476,0,4.481-2.006,4.481-4.48V18.868C79.167,16.393,77.162,14.387,74.686,14.387z
		 M24.049,27.113h-9.226c-1.709,0-3.096-1.386-3.096-3.096s1.387-3.096,3.096-3.096h9.226c1.709,0,3.096,1.386,3.096,3.096
		C27.146,25.727,25.759,27.113,24.049,27.113z M50.069,54.059c-9.154,0-16.601-7.449-16.601-16.603
		c0-9.154,7.447-16.601,16.601-16.601c9.155,0,16.603,7.447,16.603,16.601C66.671,46.609,59.224,54.059,50.069,54.059z"/>
</g>
</svg>
