<?xml version="1.0" encoding="utf-8"?>
<!-- Generator: Adobe Illustrator 15.0.0, SVG Export Plug-In . SVG Version: 6.00 Build 0)  -->
<!DOCTYPE svg PUBLIC "-//W3C//DTD SVG 1.1 Basic//EN" "http://www.w3.org/Graphics/SVG/1.1/DTD/svg11-basic.dtd">
<svg version="1.1" baseProfile="basic" id="Layer_1"
	 xmlns="http://www.w3.org/2000/svg" xmlns:xlink="http://www.w3.org/1999/xlink" x="0px" y="0px" width="57px" height="78.333px"
	 viewBox="15.667 -13.333 57 78.333" xml:space="preserve">
<g>
	<path fill="#DF1E26" d="M21.777,13.265c0-3.5,0.525-6.683,1.575-9.546c1.05-2.864,2.577-5.313,4.582-7.351
		c2.004-2.036,4.423-3.611,7.255-4.725c2.831-1.112,5.997-1.67,9.498-1.67c2.926,0,5.646,0.43,8.161,1.289
		c2.514,0.859,4.709,2.1,6.587,3.723c1.876,1.623,3.355,3.644,4.438,6.061c1.081,2.419,1.623,5.155,1.623,8.209
		c0,2.229-0.239,4.152-0.716,5.775c-0.478,1.623-1.114,3.023-1.909,4.2c-0.797,1.178-1.703,2.229-2.721,3.15
		c-1.019,0.923-2.037,1.831-3.055,2.721c-1.21,1.019-2.324,2.005-3.341,2.959c-1.02,0.955-1.909,2.021-2.673,3.198
		c-0.764,1.178-1.353,2.562-1.766,4.152c-0.415,1.592-0.621,3.532-0.621,5.823h-10.31c0-2.8,0.144-5.169,0.43-7.111
		c0.286-1.94,0.747-3.643,1.383-5.107c0.636-1.463,1.416-2.751,2.34-3.866c0.921-1.113,2.019-2.21,3.293-3.293
		c1.018-0.89,1.987-1.718,2.911-2.482c0.922-0.764,1.75-1.606,2.481-2.529c0.731-0.922,1.304-1.958,1.719-3.103
		c0.413-1.146,0.621-2.513,0.621-4.104c0-1.909-0.335-3.547-1.003-4.916c-0.668-1.368-1.479-2.466-2.434-3.293
		c-0.955-0.827-1.974-1.432-3.056-1.814c-1.082-0.381-2.037-0.573-2.863-0.573c-3.947,0-6.858,1.289-8.735,3.866
		c-1.877,2.577-2.815,6.03-2.815,10.357H21.777z M36.955,47.82h12.791v11.932H36.955V47.82z"/>
</g>
</svg>
